# xmcd
#
# Track frame offsets:
#	150
#	13973
#	30529
#	46719
#	64270
#	82175
#	95739
#	110893
#	130328
#	144718
#	159592
#	176091
#	192879
#	210896
#	237228
#
# Disc length: 4440
#
# Revision: 2
# Processed by: cddbd v1.5.1PL0 Copyright (c) Steve Scherf et al.
# Submitted via: audiograbber 1.83.01
# Normalized: r1:DSETVAR1
#
DISCID=d711560f
DTITLE=Various Artist - Goldene Schlagerparade 4/2003
DYEAR=2003
DGENRE=Schlager
TTITLE0=Golden Sunshine - Heut abend schlaf ich mit dir (in meinen Träumen ein)
TTITLE1=Seer - Wie Feuer und Wossa
TTITLE2=Tom Astor - Wenn Du zwei Arme brauchst
TTITLE3=Kristina Bach - Fliegst du mit mir zu den Sternen
TTITLE4=Howard Carpendale - Du bist doch noch hier
TTITLE5=Bernd Roberts - Wir sollten wieder mal tanzen gehn
TTITLE6=Christian Steffen - So weit die Liebe uns trägt
TTITLE7=Claudia Jung - Tausendmal Ja
TTITLE8=Die Flippers - Drei Töne am Piano
TTITLE9=Lys Assia - Manchmal hilft ein kleines Lied
TTITLE10=Roger Whittaker - Sag mir wo du bist
TTITLE11=Chris Roberts - Mein Freund
TTITLE12=Nicole - Vergiss mich wenn du kannst
TTITLE13=Michael Morgan - Jenseits vom Paradies
TTITLE14=Data - Daten-CD
EXTD=
EXTT0=
EXTT1=
EXTT2=
EXTT3=
EXTT4=
EXTT5=
EXTT6=
EXTT7=
EXTT8=
EXTT9=
EXTT10=
EXTT11=
EXTT12=
EXTT13=
EXTT14=
PLAYORDER=
